<?xml version="1.0" encoding="UTF-8" standalone="no"?>
<svg
   xmlns:dc="http://purl.org/dc/elements/1.1/"
   xmlns:cc="http://creativecommons.org/ns#"
   xmlns:rdf="http://www.w3.org/1999/02/22-rdf-syntax-ns#"
   xmlns:svg="http://www.w3.org/2000/svg"
   xmlns="http://www.w3.org/2000/svg"
   xmlns:sodipodi="http://sodipodi.sourceforge.net/DTD/sodipodi-0.dtd"
   xmlns:inkscape="http://www.inkscape.org/namespaces/inkscape"
   version="1.1"
   x="0px"
   y="0px"
   viewBox="0 0 118.94815 117.59637"
   enable-background="new 0 0 64 64"
   xml:space="preserve"
   id="svg20"
   sodipodi:docname="noun_618753_cc.svg"
   width="118.94815"
   height="117.59637"
   inkscape:version="0.92.2 5c3e80d, 2017-08-06"><metadata
     id="metadata26"><rdf:RDF><cc:Work
         rdf:about=""><dc:format>image/svg+xml</dc:format><dc:type
           rdf:resource="http://purl.org/dc/dcmitype/StillImage" /><dc:title></dc:title></cc:Work></rdf:RDF></metadata><defs
     id="defs24" /><sodipodi:namedview
     pagecolor="#ffffff"
     bordercolor="#666666"
     borderopacity="1"
     objecttolerance="10"
     gridtolerance="10"
     guidetolerance="10"
     inkscape:pageopacity="0"
     inkscape:pageshadow="2"
     inkscape:window-width="640"
     inkscape:window-height="480"
     id="namedview22"
     showgrid="false"
     fit-margin-top="10"
     fit-margin-left="10"
     fit-margin-right="10"
     fit-margin-bottom="10"
     inkscape:zoom="2.95"
     inkscape:cx="41"
     inkscape:cy="78.37469"
     inkscape:window-x="0"
     inkscape:window-y="0"
     inkscape:window-maximized="0"
     inkscape:current-layer="svg20" /><g
     id="g14"
     transform="matrix(1.5959637,0,0,1.5959637,8.4040363,7.7273477)"><path
       d="m 32.215,1.424 c -0.701,0 -1.271,0.57 -1.271,1.271 V 22.16 c 0,0.701 0.57,1.27 1.271,1.27 0.701,0 1.271,-0.57 1.271,-1.27 V 2.695 c 0.001,-0.7 -0.57,-1.271 -1.271,-1.271 z"
       id="path2"
       inkscape:connector-curvature="0"
       style="fill:#000000" /><path
       d="M 61.729,31.003 H 42.264 c -0.701,0 -1.271,0.57 -1.271,1.271 0,0.701 0.57,1.271 1.271,1.271 h 19.464 c 0.701,0 1.271,-0.57 1.271,-1.271 0,-0.701 -0.57,-1.271 -1.27,-1.271 z"
       id="path4"
       inkscape:connector-curvature="0"
       style="fill:#000000" /><path
       d="m 32.216,40.569 c -0.701,0 -1.271,0.57 -1.271,1.271 v 19.465 c 0,0.701 0.57,1.271 1.271,1.271 0.701,0 1.271,-0.57 1.271,-1.271 V 41.84 c 0,-0.701 -0.571,-1.271 -1.271,-1.271 z"
       id="path6"
       inkscape:connector-curvature="0"
       style="fill:#000000" /><path
       d="M 21.736,31.003 H 2.271 c -0.7,0 -1.271,0.57 -1.271,1.271 0,0.701 0.57,1.271 1.271,1.271 h 19.465 c 0.701,0 1.271,-0.57 1.271,-1.271 0,-0.701 -0.57,-1.271 -1.271,-1.271 z"
       id="path8"
       inkscape:connector-curvature="0"
       style="fill:#000000" /><path
       d="M 50.865,13.525 C 46.679,9.242 41.267,6.565 35.437,5.806 v 2.57 c 5.159,0.74 9.909,3.144 13.618,6.921 3.709,3.787 6.016,8.585 6.648,13.764 h 2.55 C 57.62,23.22 55.05,17.779 50.865,13.525 Z M 8.366,35.494 H 5.806 C 7.392,47.438 16.99,56.89 29.002,58.253 v -2.56 C 18.382,54.359 9.913,46.036 8.366,35.494 Z m 5.159,-22.359 c -4.4,4.312 -7.116,9.899 -7.777,15.925 h 2.56 C 8.96,23.716 11.394,18.771 15.297,14.946 19.074,11.257 23.853,8.95 29.002,8.307 V 5.747 C 23.181,6.4 17.769,8.969 13.525,13.135 Z M 55.634,35.494 C 54.096,45.89 45.842,54.135 35.436,55.634 v 2.57 C 47.243,56.666 56.627,47.302 58.194,35.495 h -2.56 z"
       id="path10"
       inkscape:connector-curvature="0"
       style="fill:#000000" /><path
       d="m 35.436,16.639 v 1.003 c 5.558,1.324 9.899,5.801 11.038,11.418 h 0.983 C 46.299,22.898 41.53,17.992 35.436,16.639 Z M 17.652,35.493 h -0.993 c 1.363,6.045 6.23,10.776 12.343,11.953 v -0.993 c -5.578,-1.148 -10.007,-5.45 -11.35,-10.96 z m -1.11,-6.434 h 0.983 C 18.693,23.296 23.239,18.731 29.001,17.544 V 16.551 C 22.704,17.758 17.73,22.752 16.542,29.059 Z m 29.806,6.434 c -1.304,5.363 -5.539,9.588 -10.912,10.863 v 1.003 c 5.909,-1.314 10.571,-5.967 11.905,-11.866 z"
       id="path12"
       inkscape:connector-curvature="0"
       style="fill:#000000" /></g></svg>